<svg width="24" height="24" viewBox="0 0 24 24" fill="none" xmlns="http://www.w3.org/2000/svg">
<path fill-rule="evenodd" clip-rule="evenodd" d="M23 5.26007C22.152 5.64007 21.245 5.89607 20.293 6.01107C21.265 5.42007 22.013 4.48307 22.364 3.36807C21.452 3.91507 20.443 4.31207 19.368 4.52807C18.508 3.59807 17.284 3.01807 15.928 3.01807C13.324 3.01807 11.211 5.15907 11.211 7.79707C11.211 8.17207 11.254 8.53707 11.333 8.88707C7.41298 8.68607 3.93798 6.78407 1.61198 3.89107C1.20798 4.59807 0.973977 5.42007 0.973977 6.29607C0.973977 7.95507 1.83898 9.41507 3.10598 10.2731C2.33098 10.2481 1.99998 10.0321 0.999977 9.67507C0.999977 9.69707 0.999977 9.71607 0.999977 9.73707C0.999977 12.0511 2.59298 13.9821 4.74998 14.4211C4.35398 14.5301 3.92098 14.5891 3.49198 14.5891C3.18998 14.5891 2.88498 14.5601 2.59598 14.5021C3.19698 16.4021 4.93498 17.7841 6.99698 17.8211C5.38398 19.1041 3.34798 19.8661 1.13898 19.8661C0.757977 19.8661 0.382977 19.8451 0.0139771 19.8031C2.10098 21.1581 4.57898 21.9491 7.24198 21.9491C15.918 21.9491 20.66 14.6681 20.66 8.35307C20.66 8.14507 20.656 7.94007 20.646 7.73507C21.566 7.05907 22.367 6.21707 23 5.26007Z" fill="white"/>
</svg>
