<svg width="25" height="24" viewBox="0 0 25 24" fill="none" xmlns="http://www.w3.org/2000/svg">
<path fill-rule="evenodd" clip-rule="evenodd" d="M19.522 18.9999C19.485 18.9999 19.448 18.9999 19.41 18.9999C18.199 18.7969 17.375 17.9259 16.671 17.1169C16.274 16.6619 15.664 15.6309 14.938 15.7479C13.907 15.9199 14.417 17.7169 13.988 18.4859C13.639 19.1089 12.157 18.9959 11.135 18.8839C7.909 18.5359 6.261 16.7799 4.816 14.8939C3.272 12.8779 2.07 10.7689 0.957995 8.45291C0.598995 7.70291 0.119995 6.87291 0.119995 5.94491C0.641995 5.50891 1.495 5.65891 2.356 5.65891C3.086 5.65891 4.226 5.49591 4.75999 5.77291C5.07699 5.93691 5.39799 6.81091 5.65499 7.36991C6.24299 8.64991 6.785 9.56991 7.5 10.6189C7.81 11.0739 8.285 11.9299 8.842 11.8159C9.383 11.7049 9.434 10.3469 9.458 9.47791C9.484 8.49191 9.45599 7.26591 9.17799 6.74091C8.915 6.24691 8.434 6.23791 7.948 5.94391C8.35299 5.11291 9.463 5.03091 10.8 5.03091C11.925 5.03091 13.493 4.90291 13.932 5.65791C14.378 6.42591 14.073 7.81191 14.044 8.85091C14.012 10.0189 13.814 11.2219 14.603 11.7569C15.21 11.6909 15.538 11.0889 15.889 10.6179C16.66 9.58691 17.138 8.69591 17.735 7.36791C17.98 6.82291 18.243 5.88591 18.686 5.71491C19.361 5.45391 20.437 5.65691 21.425 5.65691C22.235 5.65691 23.682 5.42891 23.942 5.99891C24.158 6.47191 23.522 7.66691 23.327 7.99391C22.578 9.24591 21.844 10.0429 21.034 11.1309C20.712 11.5649 20.045 12.2599 20.084 12.9529C20.114 13.4819 20.633 13.8869 21.034 14.2649C21.903 15.0869 22.512 15.6869 23.216 16.6029C23.481 16.9489 24.053 17.6949 23.998 18.1419C23.826 19.5369 20.607 18.6639 19.522 18.9999Z" fill="white"/>
</svg>
