<svg width="24" height="24" viewBox="0 0 24 24" fill="none" xmlns="http://www.w3.org/2000/svg">
<path fill-rule="evenodd" clip-rule="evenodd" d="M23.533 6.49998C23.363 5.22498 22.33 4.23698 21.047 4.12098L21.041 4.11998C14.992 3.57198 8.90698 3.57198 2.85898 4.11998L2.85298 4.12098C1.56898 4.23698 0.536982 5.22498 0.366982 6.49998L0.365982 6.50398C-0.121018 10.151 -0.121018 13.848 0.365982 17.495L0.366982 17.499C0.536982 18.773 1.56898 19.762 2.85298 19.878L2.85898 19.879C8.90698 20.427 14.992 20.427 21.041 19.879L21.047 19.878C22.33 19.762 23.363 18.774 23.533 17.499C24.021 13.849 24.021 10.15 23.533 6.49998ZM9.99998 16.016V7.99998L16.984 12L9.99998 16.016Z" fill="white"/>
</svg>
